<svg width="661" height="720" viewBox="0 0 661 720" fill="none" xmlns="http://www.w3.org/2000/svg">
<path fill-rule="evenodd" clip-rule="evenodd" d="M632.439 227.835C630.256 228.629 628.371 229.314 627 230C619 234 610 239.5 610 265.5V360H0V36C0 20.5002 8.49993 0 36 0H627C647.5 0 660.5 15.5002 660.5 33.5V196.5C660.5 217.63 642.991 223.997 632.439 227.835ZM632.439 492.165C630.256 491.371 628.371 490.686 627 490C619 486 610 480.5 610 454.5V360H0V684C0 699.5 8.49993 720 36 720H627C647.5 720 660.5 704.5 660.5 686.5V523.5C660.5 502.37 642.991 496.003 632.439 492.165Z" fill="#292929"/>
<path d="M315.033 718C315.033 679.732 425.737 653.199 393.391 589.874C361.046 526.55 228.93 669.144 149.661 576.207C70.3911 483.271 141.538 368.644 277.676 414.024C414.348 459.581 467.479 260.047 410.248 223.139C298.633 151.159 243.508 206.283 175.173 235.44C134.061 252.981 122.63 200.361 120.049 168.015C108.532 117.51 112.4 22.5 220 46.5C327.6 70.5 346.5 24.1667 342.5 2.5" stroke="#FFD5A4" stroke-width="1.82229" stroke-linecap="round" stroke-linejoin="round" stroke-dasharray="5.47 7.29"/>
<path d="M646.16 444.858C646.16 446.698 645.633 448.144 644.58 449.198C643.527 450.251 641.987 450.778 639.96 450.778H632V448.778H639.88C641.44 448.778 642.58 448.438 643.3 447.758C644.02 447.064 644.38 446.091 644.38 444.838C644.38 443.571 644.02 442.598 643.3 441.918C642.58 441.224 641.44 440.878 639.88 440.878H632V438.938H639.96C641.987 438.938 643.527 439.464 644.58 440.518C645.633 441.558 646.16 443.004 646.16 444.858ZM646 431.237H632V429.597L643.5 420.337V421.197H632V419.197H646V420.837L634.5 430.097V429.237H646V431.237ZM646 411.407H632V409.407H646V411.407ZM646.16 395.296C646.16 396.362 645.98 397.356 645.62 398.276C645.26 399.182 644.76 399.969 644.12 400.636C643.467 401.302 642.707 401.822 641.84 402.196C640.973 402.569 640.027 402.756 639 402.756C637.973 402.756 637.027 402.569 636.16 402.196C635.293 401.822 634.54 401.302 633.9 400.636C633.247 399.969 632.74 399.182 632.38 398.276C632.02 397.369 631.84 396.376 631.84 395.296C631.84 394.229 632.02 393.249 632.38 392.356C632.727 391.449 633.227 390.662 633.88 389.996C634.52 389.316 635.273 388.796 636.14 388.436C637.007 388.062 637.96 387.876 639 387.876C640.04 387.876 640.993 388.062 641.86 388.436C642.727 388.796 643.487 389.316 644.14 389.996C644.78 390.662 645.28 391.449 645.64 392.356C645.987 393.249 646.16 394.229 646.16 395.296ZM648.92 390.716C648.92 391.182 648.86 391.629 648.74 392.056C648.633 392.482 648.453 392.909 648.2 393.336C647.96 393.762 647.64 394.202 647.24 394.656C646.853 395.109 646.373 395.602 645.8 396.136L645.24 393.996C645.733 393.596 646.133 393.216 646.44 392.856C646.76 392.482 646.987 392.116 647.12 391.756C647.267 391.396 647.34 391.042 647.34 390.696C647.34 389.696 646.94 388.842 646.14 388.136L647.28 387.196C648.373 388.102 648.92 389.276 648.92 390.716ZM644.38 395.296C644.38 394.522 644.247 393.809 643.98 393.156C643.713 392.489 643.333 391.916 642.84 391.436C642.347 390.942 641.773 390.562 641.12 390.296C640.467 390.016 639.76 389.876 639 389.876C638.227 389.876 637.513 390.016 636.86 390.296C636.207 390.562 635.64 390.942 635.16 391.436C634.667 391.916 634.287 392.489 634.02 393.156C633.753 393.809 633.62 394.522 633.62 395.296C633.62 396.082 633.753 396.809 634.02 397.476C634.287 398.129 634.667 398.702 635.16 399.196C635.64 399.689 636.207 400.076 636.86 400.356C637.513 400.622 638.227 400.756 639 400.756C639.76 400.756 640.467 400.622 641.12 400.356C641.773 400.076 642.347 399.689 642.84 399.196C643.333 398.702 643.713 398.129 643.98 397.476C644.247 396.809 644.38 396.082 644.38 395.296ZM646.16 375.419C646.16 377.259 645.633 378.705 644.58 379.759C643.527 380.812 641.987 381.339 639.96 381.339H632V379.339H639.88C641.44 379.339 642.58 378.999 643.3 378.319C644.02 377.625 644.38 376.652 644.38 375.399C644.38 374.132 644.02 373.159 643.3 372.479C642.58 371.785 641.44 371.439 639.88 371.439H632V369.499H639.96C641.987 369.499 643.527 370.025 644.58 371.079C645.633 372.119 646.16 373.565 646.16 375.419ZM638.04 359.978V352.778H639.74V359.978H638.04ZM644.26 359.798V351.638H646V361.798H632V351.918H633.74V359.798H644.26ZM646 333.049H633.74V337.849H632V326.269H633.74V331.069H646V333.049ZM638.04 318.671V311.471H639.74V318.671H638.04ZM644.26 318.491V310.331H646V320.491H632V310.611H633.74V318.491H644.26ZM646 305.612L632 299.272V297.292L646 290.932V293.032L633.12 298.692V297.892L646 303.552V305.612ZM642.5 302.912L640.9 302.372V294.492L642.5 293.912V302.912ZM646 285.244H632V283.604L642.58 277.324V278.204L632 272.004V270.364L646 270.344V272.264L635.02 272.284V271.824L644.3 277.344V278.264L635.02 283.824V283.324H646V285.244Z" fill="white"/>
</svg>
