<svg width="577.357910" height="501.130859" viewBox="0 0 577.358 501.131" fill="none" xmlns="http://www.w3.org/2000/svg" xmlns:xlink="http://www.w3.org/1999/xlink">
	<desc>
			Created with Pixso.
	</desc>
	<defs/>
	<path id="Ellipse 2" d="M395.26 242.64Q371.97 251.03 353.67 267.42Q335.99 283.26 325.18 304.51Q313.93 326.57 311.8 351.05Q309.75 374.68 316.42 397.58Q323.32 421.36 338.53 440.66Q353.21 459.29 373.75 471.42Q395.05 484.03 419.35 487.69Q442.81 491.22 466.08 486Q490.25 480.62 510.46 466.65Q529.98 453.17 543.38 433.43Q557.3 412.96 562.48 388.94Q567.48 365.75 563.73 342.19Q559.87 317.73 547.2 296.68Q534.97 276.36 516.11 261.75Q496.56 246.57 472.91 239.89Q450.08 233.44 426.32 235.68L426.13 233.68Q450.27 231.41 473.45 237.96Q497.48 244.75 517.33 260.17Q536.49 275.01 548.91 295.65Q561.78 317.04 565.7 341.88Q569.51 365.81 564.43 389.36Q559.18 413.76 545.03 434.55Q531.43 454.6 511.6 468.3Q491.06 482.48 466.52 487.96Q442.88 493.26 419.05 489.67Q394.37 485.95 372.73 473.14Q351.87 460.82 336.96 441.9Q321.51 422.29 314.5 398.14Q307.73 374.88 309.81 350.87Q311.97 326.01 323.4 303.61Q334.38 282.01 352.33 265.93Q370.92 249.28 394.58 240.75L395.26 242.64Z" fill="#333333" fill-opacity="1.000000" fill-rule="evenodd"/>
	<path id="Ellipse 1" d="M311.08 370.81Q340.51 353.25 360.86 325.99Q380.5 299.66 389.13 267.79Q398.13 234.72 393.83 200.98Q389.68 168.41 373.74 139.48Q357.24 109.45 330.7 88.17Q305.08 67.62 273.52 57.89Q240.78 47.76 206.91 50.89Q174.21 53.92 144.75 68.84Q114.17 84.3 91.98 110.09Q70.56 134.98 59.75 166.19Q48.49 198.56 50.45 232.52Q52.34 265.3 66.24 295.26Q80.63 326.36 105.64 349.42Q129.78 371.68 160.59 383.57Q192.54 395.94 226.56 395.16Q259.39 394.41 289.83 381.58L290.6 383.42Q259.81 396.4 226.61 397.16Q192.19 397.95 159.87 385.44Q128.7 373.41 104.28 350.89Q78.99 327.56 64.43 296.1Q50.37 265.8 48.45 232.63Q46.47 198.27 57.86 165.53Q68.8 133.97 90.46 108.78Q112.91 82.7 143.85 67.06Q173.65 51.96 206.73 48.9Q240.99 45.73 274.11 55.98Q306.03 65.82 331.95 86.61Q358.8 108.14 375.49 138.52Q391.61 167.77 395.81 200.73Q400.17 234.87 391.07 268.32Q382.33 300.56 362.46 327.19Q341.88 354.77 312.11 372.53L311.08 370.81Z" fill="#333333" fill-opacity="1.000000" fill-rule="evenodd"/>
</svg>
